<?xml version="1.0" standalone="no"?>
<!DOCTYPE svg PUBLIC "-//W3C//DTD SVG 20010904//EN"
 "http://www.w3.org/TR/2001/REC-SVG-20010904/DTD/svg10.dtd">
<svg version="1.0" xmlns="http://www.w3.org/2000/svg"
 width="230.000000pt" height="230.000000pt" viewBox="0 0 230.000000 230.000000"
 preserveAspectRatio="xMidYMid meet">
<metadata>
Created by potrace 1.11, written by Peter Selinger 2001-2013
</metadata>
<g transform="translate(0.000000,230.000000) scale(0.100000,-0.100000)"
fill="#000000" stroke="none">
<path d="M0 2281 c0 -11 5 -23 10 -26 6 -3 10 -14 9 -23 0 -14 -2 -13 -9 3 -5
12 -9 -47 -9 -152 -1 -95 1 -173 3 -173 2 0 20 13 41 30 23 18 45 28 59 26 11
-3 23 -5 26 -5 3 -1 -2 -6 -10 -12 -11 -8 -7 -9 15 -3 48 13 123 8 186 -12 33
-11 59 -22 59 -26 0 -5 6 -8 13 -8 29 0 101 -104 96 -138 -2 -9 0 -26 4 -37
10 -33 18 -76 24 -140 4 -47 0 -72 -17 -115 -25 -63 -43 -86 -85 -107 -27 -14
-25 -11 13 24 23 23 42 45 43 49 5 56 4 62 -8 52 -7 -6 -13 -17 -13 -25 0 -8
-22 -36 -48 -62 -50 -50 -85 -63 -168 -63 -50 0 -32 -12 27 -18 l51 -5 -30
-41 c-20 -27 -47 -48 -81 -62 -82 -36 -101 -37 -144 -8 -22 15 -37 20 -37 13
1 -17 32 -53 53 -60 20 -8 18 -26 -12 -105 -12 -29 -21 -59 -21 -68 0 -9 -10
-30 -22 -46 -21 -30 -21 -30 0 -19 19 10 21 7 27 -39 6 -44 4 -52 -19 -77 -27
-29 -16 -47 12 -19 14 14 18 12 39 -19 13 -19 29 -35 36 -35 15 0 47 -55 47
-82 0 -22 -30 -78 -42 -78 -12 0 -10 14 4 28 10 10 10 15 -1 21 -8 5 -11 16
-6 30 3 12 2 21 -4 21 -13 0 -23 -34 -26 -85 -2 -36 -7 -43 -44 -63 l-41 -23
0 -250 0 -249 765 0 c421 0 765 2 765 5 0 3 -7 22 -15 42 -23 55 -21 58 37 56
29 -1 56 -2 61 -2 4 -1 7 -23 7 -51 l0 -50 340 0 340 0 -2 543 -3 542 -27 -3
c-16 -2 -28 1 -28 7 0 6 3 10 8 9 4 -1 17 1 30 6 18 6 22 14 21 49 0 23 -3 35
-6 27 -11 -34 -27 -59 -34 -54 -5 2 -6 11 -3 19 3 8 -4 24 -16 37 -19 21 -20
21 -14 3 6 -16 5 -18 -7 -9 -8 6 -27 14 -44 18 -16 4 -47 26 -69 48 -25 26
-45 38 -57 35 -36 -10 -64 81 -43 137 9 23 24 20 24 -4 0 -49 27 -75 127 -123
123 -59 129 -63 125 -76 -1 -6 2 -11 8 -11 6 0 10 34 10 81 l0 82 -60 84 c-48
66 -57 85 -45 90 9 3 17 4 18 2 2 -2 20 -30 42 -61 21 -32 40 -58 42 -58 1 0
3 198 3 440 l0 440 -295 0 -296 0 15 -29 c15 -27 12 -41 -6 -41 -5 0 -14 11
-20 25 -11 24 -12 24 -37 10 -22 -14 -21 -12 4 9 l30 26 -692 0 c-485 0 -694
-3 -699 -11 -3 -6 -17 -8 -29 -5 -13 3 -26 2 -30 -3 -3 -6 -17 -4 -33 5 -18 9
-59 14 -119 14 -85 0 -93 -2 -93 -19z m1770 -97 c29 -50 11 -64 -23 -18 -24
35 -27 54 -7 54 4 0 18 -16 30 -36z m-1134 -38 c-3 -14 -12 -23 -19 -21 -14 5
-45 -19 -69 -53 -13 -20 -14 -29 -3 -65 7 -23 22 -59 34 -80 11 -20 18 -37 14
-37 -12 0 -43 33 -43 45 0 16 -133 137 -166 151 -26 11 -26 11 12 17 22 3 65
5 97 5 32 0 61 2 64 6 4 3 -5 6 -18 6 -24 1 -24 1 6 25 24 20 79 36 94 28 2
-1 1 -13 -3 -27z m1477 -57 c2 -8 6 -20 11 -27 7 -11 4 -11 -12 -1 -12 7 -20
18 -19 23 1 6 -8 11 -20 10 -13 0 -21 2 -18 4 3 3 -1 12 -7 21 -10 13 -10 14
2 4 8 -7 20 -13 28 -13 12 0 12 3 1 18 -8 10 -4 9 10 -4 12 -11 23 -27 24 -35z
m-93 6 l34 -35 -32 11 c-18 6 -31 14 -28 16 3 3 1 14 -5 24 -14 27 -7 24 31
-16z m190 29 c0 -8 -19 -13 -24 -6 -3 5 1 9 9 9 8 0 15 -2 15 -3z m-1294 -40
c77 -43 82 -64 27 -112 -37 -32 -38 -32 -10 -28 31 5 31 18 -7 -129 l-21 -80
-53 2 c-60 3 -90 17 -151 73 -25 22 -47 38 -49 35 -2 -2 3 -11 12 -20 9 -9 13
-22 9 -28 -3 -7 -2 -9 2 -4 11 10 46 -23 38 -36 -3 -5 -2 -7 4 -4 5 3 22 -3
39 -14 16 -10 42 -19 57 -19 16 0 26 -4 22 -9 -6 -10 -30 -9 -80 4 -53 13
-132 110 -139 171 -1 11 -13 35 -25 53 -13 18 -24 43 -25 57 0 13 -5 24 -10
24 -5 0 -2 8 5 17 12 14 12 15 1 9 -11 -7 -12 -4 -3 12 22 41 65 54 50 15 -15
-40 -10 -82 11 -103 19 -19 23 -52 8 -75 -4 -6 -2 -17 4 -25 8 -12 9 -12 4 3
-3 9 -2 17 3 17 4 0 12 15 18 33 9 29 7 35 -14 50 -12 10 -23 25 -23 34 0 11
6 8 21 -11 26 -33 37 -27 32 16 -3 25 -2 29 6 18 6 -8 11 -23 11 -32 0 -27 18
-21 35 12 9 18 20 27 29 24 11 -4 16 4 18 30 l3 37 24 -18 c23 -16 71 -27 71
-17 0 3 -7 16 -16 29 -22 33 -14 32 62 -11z m99 6 c10 -11 16 -20 13 -20 -3 0
-13 9 -23 20 -10 11 -16 20 -13 20 3 0 13 -9 23 -20z m-335 -34 c0 -6 -4 -5
-9 3 -5 8 -16 11 -25 8 -9 -4 -16 -2 -16 2 0 14 24 19 38 8 6 -5 12 -15 12
-21z m1300 -39 c0 -16 -27 19 -34 43 -7 23 -6 22 13 -5 12 -16 21 -34 21 -38z
m-1684 30 c98 -42 141 -81 197 -178 46 -81 58 -128 64 -257 6 -131 -7 -195
-48 -235 -11 -10 -19 -25 -20 -35 -3 -81 -31 -155 -66 -171 -29 -13 -55 -55
-55 -89 0 -16 -14 -42 -34 -66 -38 -45 -39 -46 -21 -70 14 -19 97 -35 97 -18
0 6 3 18 7 28 5 14 2 13 -15 -4 -26 -26 -35 -27 -67 -6 -21 13 -22 19 -13 40
6 13 15 24 20 24 11 0 10 -7 -2 -30 -9 -17 -6 -21 16 -26 19 -5 31 -2 39 10 7
9 17 16 23 16 6 0 13 9 17 19 3 11 24 38 46 60 29 30 39 49 37 69 -2 33 60
172 77 172 20 0 37 61 58 203 6 37 -20 255 -33 286 -6 13 -9 26 -6 28 5 6 56
-72 56 -87 0 -5 12 -16 28 -24 15 -8 35 -23 45 -34 27 -29 92 -55 121 -48 38
9 67 58 72 123 9 89 14 87 51 -18 22 -67 24 -83 18 -174 -7 -115 -29 -170 -85
-217 -25 -21 -43 -28 -63 -25 -23 3 -26 1 -21 -15 3 -10 1 -18 -5 -18 -6 0
-11 -11 -11 -24 0 -24 -37 -98 -51 -104 -24 -10 -58 -54 -73 -93 -12 -30 -33
-56 -69 -84 -93 -73 -105 -78 -182 -76 -94 2 -108 4 -120 13 -5 5 -32 23 -60
40 -27 18 -56 40 -63 50 -7 10 -19 18 -25 18 -20 1 -49 49 -54 91 -5 32 -2 40
13 44 82 25 204 109 204 140 0 12 39 34 96 55 24 9 39 27 65 76 40 80 46 142
25 253 -37 200 -128 284 -326 300 l-75 6 55 37 c60 41 74 44 116 25z m362 -32
c-3 -3 -9 2 -12 12 -6 14 -5 15 5 6 7 -7 10 -15 7 -18z m385 0 c53 -30 86 -89
94 -170 4 -42 0 -62 -23 -111 -27 -58 -57 -94 -77 -94 -6 0 -8 3 -5 6 9 9 -32
146 -53 176 -11 14 -19 29 -19 32 0 11 19 6 34 -10 9 -8 16 -12 16 -7 0 14
-38 42 -47 35 -4 -4 2 5 15 19 20 22 22 35 20 88 -2 33 -3 61 -2 61 1 0 22
-11 47 -25z m811 9 c3 -8 2 -12 -4 -9 -6 3 -10 10 -10 16 0 14 7 11 14 -7z
m178 -31 c-8 -11 -16 -4 -18 17 -4 23 -3 24 8 5 6 -11 11 -21 10 -22z m-103
-34 c20 -11 27 -14 17 -5 -11 9 -18 18 -15 20 5 5 136 -28 145 -36 3 -4 -1
-31 -10 -62 -16 -55 -37 -77 -97 -103 -46 -20 -84 5 -104 65 -6 21 -4 23 14
17 20 -6 20 -5 6 36 -18 50 -18 52 -4 43 8 -5 10 1 7 20 -6 31 -5 32 41 5z
m-948 -36 c-12 -20 -14 -14 -5 12 4 9 9 14 11 11 3 -2 0 -13 -6 -23z m-371
-87 c0 -12 -5 -7 -19 24 -11 24 -11 24 3 6 9 -11 16 -24 16 -30z m1242 -28 c7
-13 11 -27 10 -31 -1 -5 2 -6 7 -3 19 12 21 -13 5 -54 -17 -43 -13 -66 6 -31
13 25 26 27 34 5 5 -14 4 -15 -8 -5 -22 19 -26 -10 -4 -33 10 -11 18 -26 18
-33 0 -23 -29 -14 -52 17 -12 17 -26 30 -30 30 -5 0 4 -16 19 -35 15 -19 33
-35 40 -35 6 0 21 -12 32 -27 12 -14 24 -23 28 -19 4 4 2 11 -5 15 -7 4 -15
21 -18 37 -3 16 -7 38 -10 49 -3 11 7 0 21 -25 15 -25 38 -57 52 -72 17 -18
25 -37 25 -63 0 -40 -26 -77 -48 -68 -8 3 -14 0 -14 -7 0 -6 5 -8 10 -5 6 4
10 -8 10 -29 0 -19 -4 -37 -9 -40 -12 -8 -22 20 -14 42 6 15 5 15 -10 4 -13
-11 -14 -18 -5 -37 8 -18 8 -28 -1 -39 -20 -24 -69 -39 -106 -32 -30 6 -43 17
-76 68 -48 75 -50 98 -10 98 20 0 36 9 51 28 19 24 21 35 16 91 -7 67 -26 124
-46 136 -7 4 -6 -3 3 -22 8 -15 20 -55 27 -89 10 -51 9 -66 -4 -97 -11 -28
-21 -37 -40 -37 -23 0 -24 2 -13 30 6 17 17 28 24 26 7 -3 11 6 11 26 l-1 30
-18 -23 c-15 -20 -79 -162 -137 -303 l-12 -31 5 40 c4 29 3 36 -4 25 -6 -8
-11 -33 -11 -55 0 -22 -13 -82 -30 -135 -16 -52 -37 -121 -45 -152 -9 -32 -20
-58 -25 -58 -4 0 -18 8 -31 18 l-22 19 19 94 c16 79 24 99 48 121 29 26 30 29
17 63 -11 31 -10 42 13 98 14 34 39 119 56 187 43 169 54 192 101 224 23 14
44 26 49 26 12 0 57 56 65 80 8 26 21 25 37 -2z m-1251 -75 c13 -16 20 -25 15
-21 -5 4 -16 2 -25 -5 -14 -11 -14 -10 -2 6 12 15 9 21 -10 19 -3 -1 -6 6 -6
14 0 18 -1 19 28 -13z m854 11 c31 -14 44 -34 60 -91 5 -19 2 -23 -14 -23 -24
0 -71 -20 -71 -30 0 -4 6 -13 14 -19 11 -9 16 -9 21 0 6 8 10 7 17 -2 6 -10 8
-7 6 10 -2 14 3 26 11 29 12 4 13 -6 8 -57 -4 -34 -11 -71 -17 -81 -15 -29
-81 -70 -111 -70 -20 0 -75 33 -107 65 -2 2 -8 20 -12 41 -12 52 7 132 36 151
13 8 20 21 17 29 -3 8 1 14 11 14 9 0 16 4 16 9 0 6 12 6 32 0 55 -15 63 -13
44 16 -19 29 -8 32 39 9z m657 -62 c23 -31 53 -69 67 -85 18 -20 22 -30 14
-38 -13 -13 -33 -3 -33 17 0 8 -4 14 -9 14 -9 0 -121 152 -121 164 0 18 45
-21 82 -72z m-1198 15 c-8 -28 -32 -55 -55 -62 -20 -7 -88 25 -109 50 -12 15
-11 16 16 9 16 -4 37 -10 48 -14 12 -4 26 1 40 15 11 11 31 21 44 22 19 2 22
-2 16 -20z m1055 -23 c11 -15 18 -31 15 -36 -3 -5 1 -15 10 -21 10 -7 12 -17
7 -25 -10 -17 -23 -2 -50 61 -22 52 -14 62 18 21z m-1360 2 c9 -11 9 -16 -1
-22 -7 -4 -10 -4 -6 1 4 4 3 14 -3 22 -6 7 -9 13 -6 13 2 0 10 -6 16 -14z
m627 -126 c1 -32 -10 -40 -20 -14 -10 25 -7 44 7 44 6 0 12 -13 13 -30z m303
-20 c-13 -35 -30 -41 -21 -7 4 18 19 36 29 37 1 0 -3 -13 -8 -30z m-912 -2
c-3 -8 -6 -5 -6 6 -1 11 2 17 5 13 3 -3 4 -12 1 -19z m410 0 c-3 -8 -6 -5 -6
6 -1 11 2 17 5 13 3 -3 4 -12 1 -19z m1083 -9 c0 -6 -4 -7 -10 -4 -5 3 -10 11
-10 16 0 6 5 7 10 4 6 -3 10 -11 10 -16z m-860 -55 c0 -8 -4 -14 -10 -14 -18
0 -10 -27 21 -69 17 -24 29 -44 27 -44 -2 -1 -15 -13 -30 -26 l-27 -23 -21 71
-21 72 21 29 c21 30 40 32 40 4z m106 -74 c15 0 15 -3 -1 -26 -9 -15 -12 -23
-6 -20 6 4 11 1 11 -6 0 -8 5 -6 11 5 6 9 15 14 21 11 7 -5 9 0 6 14 -4 12 0
26 8 33 18 14 20 12 30 -25 5 -21 4 -27 -5 -22 -14 9 -45 -20 -36 -35 4 -6 13
-8 20 -5 18 6 9 -23 -16 -54 -14 -17 -19 -19 -15 -7 4 11 2 16 -5 11 -6 -3 -9
-15 -6 -25 4 -14 0 -19 -15 -19 -10 0 -17 -4 -13 -10 3 -5 12 -7 20 -4 12 5
12 1 2 -25 l-11 -31 -13 25 c-8 14 -27 32 -43 40 -25 13 -28 19 -21 38 5 12
12 30 15 41 5 16 9 16 24 5 15 -13 16 -12 3 4 -7 9 -10 17 -5 17 4 0 -2 10
-13 23 -29 31 -43 62 -43 93 l0 26 40 -36 c22 -20 47 -36 56 -36z m-357 -86
c-12 -13 -26 -21 -32 -17 -6 4 -7 1 -3 -6 5 -7 1 -20 -9 -31 -9 -10 -16 -31
-15 -47 6 -79 -18 -85 -73 -19 -31 38 -35 49 -28 69 5 13 24 30 43 37 18 8 51
31 72 53 l40 38 14 -26 c12 -25 12 -29 -9 -51z m139 17 c27 -23 28 -31 2 -24
-12 3 -18 8 -15 11 2 3 0 11 -6 19 -16 19 -6 16 19 -6z m-33 -21 c-3 -14 1
-17 12 -13 13 5 14 3 2 -18 -7 -14 -14 -19 -17 -11 -2 6 -10 12 -18 12 -8 0
-14 4 -14 10 0 5 -8 6 -17 3 -15 -6 -16 -5 -3 9 11 11 19 13 28 6 11 -10 17 1
13 25 -1 5 3 6 8 3 5 -4 8 -15 6 -26z m875 15 c0 -8 9 -23 20 -32 27 -24 26
-75 -2 -108 -21 -23 -26 -24 -58 -15 -23 7 -36 7 -38 0 -2 -5 -8 -10 -13 -10
-6 0 -8 4 -4 9 6 10 -54 31 -87 31 -19 0 -25 25 -8 35 6 3 8 16 5 28 -6 21 -3
22 38 19 46 -4 92 13 116 42 17 20 31 20 31 1z m-834 -70 c0 -28 -8 -24 -13 5
-2 11 1 20 5 20 4 0 8 -11 8 -25z m-30 -26 c10 -11 14 -20 9 -19 -21 5 -36 -1
-30 -10 4 -6 11 -7 17 -4 7 4 8 2 4 -5 -12 -18 -34 5 -31 32 4 34 5 35 31 6z
m-86 -33 c0 -2 -11 -11 -25 -20 -25 -17 -25 -16 -13 4 11 17 38 29 38 16z
m780 -10 c0 -3 -4 -8 -10 -11 -5 -3 -10 -1 -10 4 0 6 5 11 10 11 6 0 10 -2 10
-4z m-720 -16 c0 -5 -2 -10 -4 -10 -3 0 -8 5 -11 10 -3 6 -1 10 4 10 6 0 11
-4 11 -10z m-680 -19 c0 -21 -13 -41 -26 -41 -11 0 -11 5 -2 25 11 24 28 34
28 16z m754 -6 c-4 -8 -11 -15 -16 -15 -6 0 -5 6 2 15 7 8 14 15 16 15 2 0 1
-7 -2 -15z m-79 -4 c3 -5 1 -12 -5 -16 -5 -3 -10 1 -10 9 0 18 6 21 15 7z
m289 -6 c3 -8 1 -15 -4 -15 -6 0 -10 7 -10 15 0 8 2 15 4 15 2 0 6 -7 10 -15z
m633 -7 c-3 -8 -6 -5 -6 6 -1 11 2 17 5 13 3 -3 4 -12 1 -19z m-1507 8 c0 -18
-22 -56 -29 -52 -10 7 9 56 22 56 4 0 7 -2 7 -4z m1318 -12 c16 -5 15 -16 -3
-40 -14 -18 -14 -18 -8 4 4 17 1 22 -16 23 -25 2 -29 3 -61 17 -21 9 -17 10
25 6 28 -3 56 -7 63 -10z m222 1 c11 -13 10 -14 -4 -9 -9 3 -16 10 -16 15 0
13 6 11 20 -6z m-1033 -12 c31 -14 93 -83 93 -103 0 -3 -8 -15 -19 -26 -10
-11 -22 -30 -25 -42 -6 -17 -15 -22 -39 -21 -25 0 -28 2 -13 8 17 6 15 10 -15
27 -42 25 -64 34 -107 44 -27 7 -32 5 -28 -6 3 -8 1 -14 -3 -14 -17 0 -21 32
-6 60 8 16 15 37 15 48 0 10 5 23 12 30 17 17 94 15 135 -5z m273 -8 c0 -8 7
-15 16 -15 14 0 14 -1 0 -16 -9 -8 -13 -21 -9 -27 4 -8 1 -7 -9 1 -13 10 -17
10 -22 -5 -6 -15 -9 -14 -19 7 -10 21 -9 27 8 46 24 26 35 29 35 9z m-200 -1
c0 -8 -19 -13 -24 -6 -3 5 1 9 9 9 8 0 15 -2 15 -3z m826 -52 c-11 -10 -14 3
-8 33 l7 30 3 -28 c2 -16 1 -31 -2 -35z m44 38 c13 -8 13 -10 -2 -10 -9 0 -19
-8 -21 -17 -3 -11 -5 -7 -6 10 -1 29 5 33 29 17z m30 -41 c0 -5 -4 -9 -10 -9
-5 0 -10 6 -10 13 0 8 -4 7 -10 -3 -5 -8 -10 -10 -10 -4 0 6 3 13 6 17 8 8 34
-3 34 -14z m42 -4 c-2 -14 -6 -25 -8 -25 -2 0 -4 11 -4 25 0 14 4 25 9 25 4 0
6 -11 3 -25z m-272 -1 c0 -14 -3 -14 -15 -4 -8 7 -15 14 -15 16 0 2 7 4 15 4
8 0 15 -7 15 -16z m300 -9 c0 -14 -4 -25 -9 -25 -4 0 -6 11 -3 25 2 14 6 25 8
25 2 0 4 -11 4 -25z m40 5 c12 -7 12 -12 2 -22 -9 -9 -12 -8 -13 8 -1 15 -3
14 -9 -6 l-8 -25 -1 28 c-1 29 5 32 29 17z m26 -35 c-3 -26 -16 -48 -16 -26 0
7 -4 9 -10 6 -16 -10 -12 7 7 27 21 23 22 23 19 -7z m-869 -1 c-3 -3 -12 -4
-19 -1 -8 3 -5 6 6 6 11 1 17 -2 13 -5z m-592 -23 c-3 -6 -11 -11 -16 -11 -5
0 -4 6 3 14 14 16 24 13 13 -3z m1509 -30 c5 -27 4 -31 -8 -22 -7 6 -11 22 -8
36 6 31 7 30 16 -14z m-1917 -7 c59 -45 58 -44 47 -44 -5 0 -31 18 -58 40 -60
50 -53 52 11 4z m668 26 c-3 -5 0 -7 8 -5 18 7 51 -30 41 -46 -5 -9 -10 -7
-15 7 -6 14 -8 11 -8 -16 -1 -24 2 -31 8 -21 6 9 11 -26 15 -95 9 -159 21
-210 57 -236 16 -12 29 -24 29 -27 0 -3 -28 -6 -63 -6 -62 0 -62 0 -65 30 -1
17 -14 84 -27 150 -37 186 -39 208 -21 244 9 17 23 31 32 31 8 0 12 -4 9 -10z
m500 -30 c3 -10 28 -33 56 -51 27 -17 47 -34 44 -37 -2 -3 1 -12 8 -20 10 -13
9 -14 -11 -3 -29 16 -47 3 -56 -42 -7 -31 -8 -31 -21 -12 -8 11 -19 26 -26 33
-6 7 -8 24 -5 38 5 17 2 24 -9 24 -17 0 -21 35 -5 45 7 4 7 12 0 25 -5 10 -10
24 -10 31 0 17 28 -7 35 -31z m725 30 c0 -5 -5 -10 -11 -10 -5 0 -7 5 -4 10 3
6 8 10 11 10 2 0 4 -4 4 -10z m-1510 -25 c-7 -9 -15 -13 -19 -10 -3 3 1 10 9
15 21 14 24 12 10 -5z m-30 -20 c0 -14 -4 -25 -10 -25 -11 0 -14 33 -3 43 11
11 13 8 13 -18z m-48 -31 c-3 -17 -8 -22 -15 -15 -7 7 -6 15 3 26 17 20 18 19
12 -11z m781 1 c-3 -9 -8 -14 -10 -11 -3 3 -2 9 2 15 9 16 15 13 8 -4z m-968
-5 c3 -5 1 -10 -4 -10 -6 0 -11 5 -11 10 0 6 2 10 4 10 3 0 8 -4 11 -10z m125
-10 c0 -5 -5 -10 -11 -10 -5 0 -7 5 -4 10 3 6 8 10 11 10 2 0 4 -4 4 -10z m30
0 c0 -5 -2 -10 -4 -10 -3 0 -8 5 -11 10 -3 6 -1 10 4 10 6 0 11 -4 11 -10z
m1164 -85 c31 -29 43 -70 26 -90 -11 -14 -15 -12 -30 13 -27 45 -68 72 -109
72 l-36 1 33 18 c41 21 83 16 116 -14z m-170 19 c17 -6 22 -24 8 -24 -5 0 -17
7 -28 15 -19 15 -8 20 20 9z m46 -38 c70 -2 110 -33 110 -85 0 -19 -3 -18 -44
9 -52 35 -62 37 -76 10 -12 -22 4 -43 64 -86 32 -23 28 -44 -8 -44 -48 0 -106
72 -106 132 0 13 -9 29 -20 36 -26 16 -15 46 14 37 11 -4 41 -8 66 -9z m-265
-17 c-5 -7 7 -21 72 -77 16 -13 19 -22 12 -29 -8 -8 -7 -13 2 -18 7 -5 10 -4
6 2 -4 6 0 16 8 23 13 11 15 6 15 -30 l0 -43 -19 24 c-10 13 -19 27 -19 32 -1
4 -21 28 -44 53 -47 50 -67 87 -43 77 8 -3 13 -9 10 -14z m71 -14 c2 -21 -1
-24 -12 -14 -11 9 -11 15 -3 25 15 18 14 18 15 -11z m93 -6 c35 -12 43 -34 9
-24 -21 7 -59 35 -47 35 3 0 20 -5 38 -11z m140 -55 c4 3 8 -4 8 -16 2 -19 1
-19 -18 3 -10 12 -19 27 -19 33 0 6 5 3 11 -7 6 -9 14 -15 18 -13z m430 -11
c-7 -8 1 -20 27 -39 35 -27 36 -29 30 -76 -4 -27 -9 -55 -12 -62 -3 -8 -61
-46 -130 -86 -68 -39 -124 -74 -124 -78 0 -4 49 -5 109 -4 l109 4 -15 -54 -15
-53 -174 0 c-122 0 -174 3 -174 11 0 6 3 26 6 43 6 27 11 31 38 31 49 1 76 28
79 80 2 51 14 65 89 108 31 18 63 43 72 57 l16 25 -40 0 c-34 0 -41 -4 -46
-25 -6 -24 -10 -25 -75 -25 -38 0 -69 4 -69 9 0 62 81 127 167 133 29 2 54 6
57 8 2 3 22 5 44 5 30 0 38 -3 31 -12z m-368 -28 c5 4 9 2 9 -4 0 -5 -4 -13
-10 -16 -5 -3 -10 -1 -10 5 0 6 -4 9 -9 6 -5 -4 -6 4 -3 16 5 19 7 20 10 5 2
-9 8 -15 13 -12z m5 -53 c-18 -16 -18 -16 -6 6 6 13 14 21 18 18 3 -4 -2 -14
-12 -24z m-221 -24 c-3 -7 6 -18 19 -24 21 -10 23 -9 18 4 -3 10 -1 13 6 8 7
-4 12 -14 12 -23 0 -12 -6 -13 -27 -7 -16 4 -40 7 -56 6 -22 -1 -25 1 -15 12
7 8 16 12 19 10 4 -2 9 3 13 11 3 8 8 15 10 15 3 0 3 -6 1 -12z m-1082 -28
c-22 -16 -52 -48 -67 -70 -35 -54 -42 -51 -8 4 25 41 86 95 106 96 6 0 -8 -13
-31 -30z m185 9 c12 -5 22 -14 22 -20 0 -7 -7 -8 -17 -4 -82 33 -135 27 -199
-24 -11 -9 -4 -1 15 17 53 50 105 59 179 31z m739 -1 c-3 -8 -6 -5 -6 6 -1 11
2 17 5 13 3 -3 4 -12 1 -19z m78 12 c-3 -5 0 -10 7 -11 7 0 4 -4 -7 -8 -12 -5
-28 -4 -40 2 -19 10 -18 12 10 18 17 4 31 7 33 8 2 0 0 -3 -3 -9z m-1285 -28
c0 -21 -27 -43 -43 -36 -16 6 -15 9 10 25 32 22 33 22 33 11z m1227 -14 c-3
-8 -6 -5 -6 6 -1 11 2 17 5 13 3 -3 4 -12 1 -19z m408 -8 c-4 -7 8 -8 34 -4
43 7 45 6 35 -20 -7 -19 -34 -21 -34 -3 -1 15 -30 -22 -30 -38 0 -6 10 -11 23
-11 19 1 22 -3 19 -29 -5 -42 -29 -65 -69 -65 -32 0 -44 16 -26 34 4 4 8 14 8
22 0 17 19 19 21 1 3 -32 5 -37 14 -37 6 0 10 7 10 16 0 8 -4 12 -10 9 -5 -3
-10 -1 -10 4 0 6 7 11 15 11 8 0 15 4 15 10 0 5 -6 7 -13 4 -8 -3 -19 2 -26
10 -10 12 -9 21 4 45 8 17 13 31 10 31 -4 0 -3 5 0 10 3 6 8 10 11 10 3 0 2
-5 -1 -10z m-1106 -9 c12 -7 10 -37 -5 -81 0 -3 -5 -20 -9 -38 -4 -19 -14 -36
-22 -39 -21 -8 -26 3 -13 26 6 12 7 21 2 21 -5 0 -14 -11 -20 -25 -15 -32 -32
-32 -32 -1 0 49 13 88 40 116 30 32 37 35 59 21z m108 -4 c9 -10 -19 -127 -34
-143 -8 -8 -27 -14 -42 -14 -26 0 -28 3 -25 38 1 20 3 38 4 40 1 1 3 5 5 10 1
4 9 23 18 44 14 30 21 36 42 33 14 -1 28 -5 32 -8z m57 -50 c-16 -61 -17 -70
-5 -63 5 3 12 22 16 42 11 59 23 84 39 78 20 -8 -14 -118 -46 -144 -23 -19
-23 -19 -39 2 -18 23 -18 41 1 89 31 77 55 75 34 -4z m155 50 c14 -18 -27
-157 -47 -157 -10 0 -12 7 -8 25 4 14 2 25 -3 25 -5 0 -12 -11 -15 -25 -4 -14
-13 -25 -21 -25 -8 0 -15 1 -15 3 0 1 7 26 15 56 8 30 12 58 10 62 -3 4 2 12
10 19 8 7 13 15 11 19 -8 12 52 10 63 -2z m110 -2 c7 -8 -21 -124 -35 -142
-22 -32 -27 -5 -10 61 19 75 19 79 7 72 -4 -3 -11 -20 -15 -38 -15 -76 -27
-108 -42 -108 -11 0 -13 9 -9 38 3 20 6 44 7 52 0 8 4 17 7 20 4 3 12 17 18
32 10 22 17 26 40 22 15 -3 29 -7 32 -9z m99 6 c18 -11 11 -45 -10 -49 -13 -2
-15 2 -11 19 4 14 2 20 -4 16 -6 -4 -16 -26 -22 -51 -6 -24 -13 -51 -17 -60
-3 -9 -1 -16 5 -16 6 0 11 5 11 12 0 7 10 21 23 33 13 11 17 16 10 11 -8 -5
-16 -6 -20 -2 -11 10 11 26 40 28 25 2 31 11 30 44 0 6 5 11 11 12 6 1 26 4
43 6 32 5 33 5 30 -28 -1 -26 -6 -32 -20 -28 -12 3 -16 10 -12 23 4 11 2 19
-3 19 -5 0 -12 -10 -16 -22 -9 -34 -8 -38 12 -31 11 4 8 -4 -10 -21 -26 -25
-40 -64 -18 -51 6 3 10 13 10 21 0 8 4 14 9 14 5 0 17 3 26 6 14 6 14 3 -2
-30 -15 -32 -21 -37 -47 -34 -23 2 -31 9 -37 31 -4 15 -3 27 2 27 5 0 9 7 9
16 0 17 -21 -7 -46 -51 -7 -13 -22 -20 -40 -20 -28 0 -29 1 -26 45 4 66 5 70
14 64 4 -3 8 2 8 10 0 8 10 22 22 30 26 18 28 19 46 7z m232 6 c0 -1 -9 -34
-20 -72 -23 -81 -22 -75 -12 -75 4 0 16 32 26 70 11 45 23 70 32 70 16 0 18
-27 5 -62 -15 -43 -21 -78 -13 -78 4 0 16 32 26 70 12 44 24 70 32 70 8 0 14
-8 14 -18 0 -30 -31 -126 -44 -134 -19 -13 -104 -9 -113 5 -11 18 -12 36 -2
43 5 3 6 10 3 16 -9 14 37 98 53 98 7 0 13 -1 13 -3z m189 -11 c17 -21 -19
-150 -43 -154 -13 -3 -16 1 -10 22 3 15 2 26 -4 26 -5 0 -13 -11 -16 -25 -4
-14 -14 -25 -22 -25 -32 0 8 138 46 157 32 16 35 16 49 -1z m104 -1 c15 -15
12 -50 -4 -61 -5 -3 -9 -10 -9 -16 0 -6 7 -5 18 3 16 13 16 12 1 -6 -9 -11
-19 -32 -23 -47 -4 -16 -13 -28 -22 -28 -14 0 -16 8 -11 43 l6 42 -14 -30 c-8
-16 -14 -36 -15 -42 0 -7 -7 -13 -15 -13 -17 0 -18 11 -4 65 25 99 28 105 54
105 13 0 30 -7 38 -15z m192 5 c-3 -5 -13 -10 -21 -10 -8 0 -14 5 -14 10 0 6
9 10 21 10 11 0 17 -4 14 -10z m168 -84 c4 -10 1 -13 -8 -9 -8 3 -12 9 -9 14
7 12 11 11 17 -5z m-1232 -138 l2 -23 4 23 c3 13 10 21 16 19 7 -2 11 -11 9
-19 -4 -28 27 -30 34 -3 7 29 44 35 44 8 1 -17 1 -17 11 0 11 20 49 23 49 5 0
-9 2 -10 8 -2 8 14 62 16 62 3 0 -5 -5 -9 -10 -9 -7 0 -7 -6 0 -19 10 -19 -3
-41 -14 -23 -6 10 -48 8 -66 -3 -8 -5 -18 -2 -27 10 -7 11 -13 14 -13 8 0 -7
-33 -11 -89 -11 l-90 -1 11 30 c13 37 57 42 59 7z m299 10 c0 -9 4 -8 10 2 8
12 11 13 19 1 6 -9 11 -10 15 -2 10 15 46 14 46 -1 0 -9 3 -9 12 0 18 18 31
14 25 -7 -3 -11 1 -22 8 -25 9 -3 15 4 17 17 2 16 11 23 32 25 24 3 28 1 21
-15 -4 -10 -8 -24 -8 -30 0 -15 2 -14 -57 -16 -34 -1 -44 2 -42 13 3 10 -2 9
-17 -4 -17 -15 -23 -16 -35 -7 -8 7 -20 10 -27 6 -6 -4 -15 -1 -20 6 -6 10 -9
11 -9 2 0 -7 -6 -13 -13 -13 -9 0 -12 10 -9 30 4 29 32 44 32 18z m283 -18
l-2 -25 11 25 c17 35 18 36 28 20 6 -9 10 -10 10 -3 0 15 102 13 112 -2 5 -7
8 -7 8 0 0 6 18 11 39 12 43 2 58 -15 41 -47 -10 -19 -25 -21 -49 -6 -8 5 -16
4 -21 -4 -5 -8 -10 -9 -14 -2 -4 6 -13 9 -21 5 -10 -3 -15 1 -16 13 0 18 -1
18 -8 0 -8 -20 -66 -33 -76 -16 -3 6 -15 6 -30 0 -19 -7 -27 -6 -34 8 -6 10
-11 12 -11 5 0 -24 -20 -13 -20 10 0 30 9 39 35 35 15 -2 19 -10 18 -28z
m-933 -10 c0 -6 -30 -10 -69 -10 -39 0 -73 5 -76 10 -4 6 22 10 69 10 44 0 76
-4 76 -10z"/>
<path d="M770 2015 c0 -2 5 -14 10 -27 9 -19 19 -23 60 -24 28 -1 50 0 50 2 0
3 -107 54 -114 54 -3 0 -6 -2 -6 -5z"/>
<path d="M580 1973 c1 -14 28 -44 32 -36 3 4 -3 16 -14 26 -10 9 -18 14 -18
10z"/>
<path d="M900 1895 c0 -17 -16 -20 -23 -5 -3 6 -4 5 -3 -2 4 -21 24 -20 36 1
7 14 7 21 0 21 -5 0 -10 -7 -10 -15z"/>
<path d="M770 1851 c0 -5 7 -11 14 -14 10 -4 13 -1 9 9 -6 15 -23 19 -23 5z"/>
<path d="M825 1842 c32 -14 95 -22 95 -11 0 5 -15 9 -32 9 -18 0 -44 3 -58 5
-21 5 -22 4 -5 -3z"/>
<path d="M1015 1800 c3 -5 8 -10 11 -10 2 0 4 5 4 10 0 6 -5 10 -11 10 -5 0
-7 -4 -4 -10z"/>
<path d="M1040 1719 c0 -19 5 -41 10 -49 7 -10 8 -1 4 30 -8 56 -14 64 -14 19z"/>
<path d="M1906 1926 c3 -8 14 -14 25 -13 23 2 25 13 3 21 -25 10 -34 7 -28 -8z"/>
<path d="M2025 1909 c-12 -19 3 -22 27 -5 l22 16 -21 0 c-12 0 -25 -5 -28 -11z"/>
<path d="M1290 1640 c0 -5 8 -10 17 -10 13 0 14 -3 5 -12 -17 -17 -15 -33 2
-19 11 9 15 9 18 -1 2 -11 8 -12 27 -2 24 12 24 12 -17 33 -47 24 -52 25 -52
11z"/>
<path d="M1346 1285 c-9 -26 -7 -32 5 -12 6 10 9 21 6 23 -2 3 -7 -2 -11 -11z"/>
<path d="M581 462 c-6 -12 -11 -31 -10 -44 0 -17 4 -14 15 16 15 43 12 60 -5
28z"/>
<path d="M676 426 c-16 -54 -20 -84 -11 -75 10 11 42 129 35 129 -5 0 -16 -24
-24 -54z"/>
<path d="M896 463 c-2 -10 -7 -28 -11 -40 -3 -13 -2 -23 3 -23 5 0 12 10 15
23 2 12 8 30 12 40 4 10 3 17 -3 17 -6 0 -13 -8 -16 -17z"/>
<path d="M1526 456 c-3 -13 -9 -31 -12 -40 -3 -9 -2 -16 3 -16 5 0 14 18 20
40 5 22 7 40 3 40 -4 0 -11 -11 -14 -24z"/>
<path d="M1635 460 c-4 -12 -5 -24 -2 -27 3 -2 8 5 12 17 4 12 5 24 2 27 -3 2
-8 -5 -12 -17z"/>
<path d="M940 260 c0 -5 10 -10 23 -10 18 0 19 2 7 10 -19 13 -30 13 -30 0z"/>
<path d="M1145 260 c-4 -6 1 -7 11 -3 13 5 15 3 9 -7 -5 -9 -4 -11 3 -6 7 4
12 11 12 17 0 12 -27 12 -35 -1z"/>
<path d="M1595 260 c-3 -5 -2 -10 4 -10 5 0 13 5 16 10 3 6 2 10 -4 10 -5 0
-13 -4 -16 -10z"/>
<path d="M34 1908 l-19 -23 23 19 c21 18 27 26 19 26 -2 0 -12 -10 -23 -22z"/>
<path d="M380 1873 c0 -5 9 -18 20 -28 11 -10 20 -16 20 -13 0 3 -9 15 -20 28
-11 13 -20 19 -20 13z"/>
<path d="M410 1810 c0 -5 5 -10 11 -10 5 0 7 5 4 10 -3 6 -8 10 -11 10 -2 0
-4 -4 -4 -10z"/>
<path d="M470 1620 c0 -5 5 -10 11 -10 5 0 7 5 4 10 -3 6 -8 10 -11 10 -2 0
-4 -4 -4 -10z"/>
<path d="M478 1554 c-6 -48 -2 -55 12 -20 6 17 7 34 1 43 -6 12 -10 6 -13 -23z"/>
<path d="M43 1383 c9 -2 17 -10 17 -16 0 -9 2 -9 8 -1 4 6 14 14 22 17 8 3 -3
5 -25 5 -22 0 -32 -2 -22 -5z"/>
<path d="M120 1366 c8 -8 29 -17 45 -21 l30 -6 -35 20 c-41 24 -60 27 -40 7z"/>
</g>
</svg>
